<?xml version="1.0" encoding="UTF-8" standalone="no"?>
<svg
   xmlns:dc="http://purl.org/dc/elements/1.1/"
   xmlns:cc="http://creativecommons.org/ns#"
   xmlns:rdf="http://www.w3.org/1999/02/22-rdf-syntax-ns#"
   xmlns:svg="http://www.w3.org/2000/svg"
   xmlns="http://www.w3.org/2000/svg"
   xmlns:xlink="http://www.w3.org/1999/xlink"
   xmlns:sodipodi="http://sodipodi.sourceforge.net/DTD/sodipodi-0.dtd"
   xmlns:inkscape="http://www.inkscape.org/namespaces/inkscape"
   version="1.1"
   preserveAspectRatio="none"
   x="0px"
   y="0px"
   width="2045px"
   height="1421px"
   viewBox="0 0 2045 1421"
   id="svg909"
   sodipodi:docname="background.svg"
   inkscape:version="0.92.3 (2405546, 2018-03-11)">
  <metadata
     id="metadata913">
    <rdf:RDF>
      <cc:Work
         rdf:about="">
        <dc:format>image/svg+xml</dc:format>
        <dc:type
           rdf:resource="http://purl.org/dc/dcmitype/StillImage" />
        <dc:title></dc:title>
      </cc:Work>
    </rdf:RDF>
  </metadata>
  <sodipodi:namedview
     pagecolor="#ffffff"
     bordercolor="#666666"
     borderopacity="1"
     objecttolerance="10"
     gridtolerance="10"
     guidetolerance="10"
     inkscape:pageopacity="0"
     inkscape:pageshadow="2"
     inkscape:window-width="958"
     inkscape:window-height="1023"
     id="namedview911"
     showgrid="false"
     inkscape:zoom="0.93949163"
     inkscape:cx="1723.6703"
     inkscape:cy="1312.0108"
     inkscape:window-x="960"
     inkscape:window-y="0"
     inkscape:window-maximized="0"
     inkscape:current-layer="svg909" />
  <defs
     id="defs289">
    <linearGradient
       id="Gradient_1"
       gradientUnits="userSpaceOnUse"
       x1="-542.45"
       y1="-34.75"
       x2="1258.95"
       y2="-34.75"
       spreadMethod="pad">
      <stop
         offset="0%"
         stop-color="#F9C880"
         id="stop2" />
      <stop
         offset="99.6078431372549%"
         stop-color="#F29100"
         id="stop4" />
    </linearGradient>
    <radialGradient
       id="Gradient_2"
       gradientUnits="userSpaceOnUse"
       cx="0"
       cy="0"
       r="454.51250000000005"
       fx="0"
       fy="0"
       gradientTransform="matrix( 0.9999999999999999, 0, 0, 0.9999999999999999, -561,-236) "
       spreadMethod="pad">
      <stop
         offset="0%"
         stop-color="#80CFF1"
         id="stop7" />
      <stop
         offset="99.6078431372549%"
         stop-color="#009EE2"
         id="stop9" />
    </radialGradient>
    <linearGradient
       id="Gradient_3"
       gradientUnits="userSpaceOnUse"
       x1="-647.5"
       y1="-249.11249999999998"
       x2="-647.5"
       y2="-703.7875"
       spreadMethod="pad">
      <stop
         offset="0%"
         stop-color="#F9C880"
         id="stop12" />
      <stop
         offset="99.6078431372549%"
         stop-color="#F29100"
         id="stop14" />
    </linearGradient>
    <linearGradient
       id="Gradient_4"
       gradientUnits="userSpaceOnUse"
       x1="-211.8"
       y1="-181"
       x2="-211.8"
       y2="712.6"
       spreadMethod="pad">
      <stop
         offset="0%"
         stop-color="#F9C880"
         id="stop17" />
      <stop
         offset="99.6078431372549%"
         stop-color="#F29100"
         id="stop19" />
    </linearGradient>
    <linearGradient
       id="Gradient_5"
       gradientUnits="userSpaceOnUse"
       x1="77.1625"
       y1="177.39999999999998"
       x2="-42.862500000000004"
       y2="-708.1"
       spreadMethod="pad">
      <stop
         offset="0%"
         stop-color="#F9C880"
         id="stop22" />
      <stop
         offset="99.6078431372549%"
         stop-color="#F29100"
         id="stop24" />
    </linearGradient>
    <radialGradient
       id="Gradient_6"
       gradientUnits="userSpaceOnUse"
       cx="0"
       cy="0"
       r="454.51250000000005"
       fx="0"
       fy="0"
       gradientTransform="matrix( 0.9999999999999999, 0, 0, 0.9999999999999999, 721.55,-191.05) "
       spreadMethod="pad">
      <stop
         offset="0%"
         stop-color="#80CFF1"
         id="stop27" />
      <stop
         offset="99.6078431372549%"
         stop-color="#009EE2"
         id="stop29" />
    </radialGradient>
    <linearGradient
       id="Gradient_7"
       gradientUnits="userSpaceOnUse"
       x1="52.474999999999994"
       y1="129.5625"
       x2="95.025"
       y2="44.537499999999994"
       spreadMethod="pad">
      <stop
         offset="0%"
         stop-color="#000000"
         stop-opacity="0.3568627450980392"
         id="stop32" />
      <stop
         offset="100%"
         stop-color="#000000"
         stop-opacity="0"
         id="stop34" />
    </linearGradient>
    <linearGradient
       id="Gradient_8"
       gradientUnits="userSpaceOnUse"
       x1="21.449999999999996"
       y1="144.0125"
       x2="105.75"
       y2="60.58749999999999"
       spreadMethod="pad">
      <stop
         offset="0%"
         stop-color="#1C1D1F"
         id="stop37" />
      <stop
         offset="100%"
         stop-color="#595959"
         id="stop39" />
    </linearGradient>
    <linearGradient
       id="Gradient_9"
       gradientUnits="userSpaceOnUse"
       x1="346.55"
       y1="-60.9125"
       x2="337.95"
       y2="-15.787500000000001"
       spreadMethod="pad">
      <stop
         offset="0%"
         stop-color="#000000"
         stop-opacity="0.3568627450980392"
         id="stop42" />
      <stop
         offset="100%"
         stop-color="#000000"
         stop-opacity="0"
         id="stop44" />
    </linearGradient>
    <linearGradient
       id="Gradient_10"
       gradientUnits="userSpaceOnUse"
       x1="21.449999999999996"
       y1="144.0125"
       x2="105.75"
       y2="60.58749999999999"
       spreadMethod="pad">
      <stop
         offset="0%"
         stop-color="#124B97"
         id="stop47" />
      <stop
         offset="42.745098039215684%"
         stop-color="#7D4196"
         id="stop49" />
      <stop
         offset="82.3529411764706%"
         stop-color="#DA3894"
         id="stop51" />
      <stop
         offset="100%"
         stop-color="#FF3494"
         id="stop53" />
    </linearGradient>
    <linearGradient
       id="Gradient_11"
       gradientUnits="userSpaceOnUse"
       x1="21.449999999999996"
       y1="144.0125"
       x2="105.75"
       y2="60.58749999999999"
       spreadMethod="pad">
      <stop
         offset="0%"
         stop-color="#0032C3"
         id="stop56" />
      <stop
         offset="41.96078431372549%"
         stop-color="#0077BA"
         id="stop58" />
      <stop
         offset="81.17647058823529%"
         stop-color="#00B1B2"
         id="stop60" />
      <stop
         offset="100%"
         stop-color="#00C8AF"
         id="stop62" />
    </linearGradient>
    <linearGradient
       id="Gradient_12"
       gradientUnits="userSpaceOnUse"
       x1="344.90000000000003"
       y1="-37.1625"
       x2="336.3"
       y2="7.9625"
       spreadMethod="pad">
      <stop
         offset="0%"
         stop-color="#000000"
         stop-opacity="0.3568627450980392"
         id="stop65" />
      <stop
         offset="100%"
         stop-color="#000000"
         stop-opacity="0"
         id="stop67" />
    </linearGradient>
    <linearGradient
       id="Gradient_13"
       gradientUnits="userSpaceOnUse"
       x1="21.449999999999996"
       y1="144.0125"
       x2="105.75"
       y2="60.58749999999999"
       spreadMethod="pad">
      <stop
         offset="0%"
         stop-color="#00C37E"
         id="stop70" />
      <stop
         offset="1.1764705882352942%"
         stop-color="#08C57A"
         id="stop72" />
      <stop
         offset="11.372549019607844%"
         stop-color="#3BCF5E"
         id="stop74" />
      <stop
         offset="21.568627450980394%"
         stop-color="#68D845"
         id="stop76" />
      <stop
         offset="32.15686274509804%"
         stop-color="#8FE02F"
         id="stop78" />
      <stop
         offset="43.13725490196079%"
         stop-color="#AEE61E"
         id="stop80" />
      <stop
         offset="54.509803921568626%"
         stop-color="#C6EB11"
         id="stop82" />
      <stop
         offset="66.66666666666667%"
         stop-color="#D8EE07"
         id="stop84" />
      <stop
         offset="79.6078431372549%"
         stop-color="#E2F002"
         id="stop86" />
      <stop
         offset="95.29411764705883%"
         stop-color="#E5F100"
         id="stop88" />
    </linearGradient>
    <linearGradient
       id="Gradient_14"
       gradientUnits="userSpaceOnUse"
       x1="21.449999999999996"
       y1="144.0125"
       x2="105.75"
       y2="60.58749999999999"
       spreadMethod="pad">
      <stop
         offset="0%"
         stop-color="#EF184B"
         id="stop91" />
      <stop
         offset="100%"
         stop-color="#FF9E15"
         id="stop93" />
    </linearGradient>
    <filter
       id="Filter_1"
       x="-20%"
       y="-20%"
       width="140%"
       height="140%"
       color-interpolation-filters="sRGB">
      <feColorMatrix
         in="SourceGraphic"
         type="matrix"
         values="1 0 0 0 0 0 1 0 0 0 0 0 1 0 0 0 0 0 0.15 0"
         result="result1"
         id="feColorMatrix96" />
    </filter>
    <g
       id="Symbol_34_0_Layer0_0_FILL">
      <path
         fill="url(#Gradient_1)"
         stroke="none"
         d=" M -284.45 -319.7 Q -299.111328125 -318.150390625 -313.45 -315.45 -309.0666015625 -315.9595703125 -304.7 -316.55 -294.487890625 -317.9376953125 -284.45 -319.7 M -620.45 -711.05 Q -618.0421875 -710.9841796875 -615.75 -710.95 -597.2501953125 -710.66640625 -585.4 -710.8 -584.9953125 -710.778125 -584.65 -710.8 -577.9939453125 -710.840234375 -573.5 -711.05 -565.8052734375 -711.35625 -564.45 -712.05 L -593.2 -712.05 -593.7 -712.05 -657.9 -712.05 -657.9 -712.65 -1022.3 -712.65 -1022.3 -639.05 Q -953.84765625 -607.4615234375 -871 -611.95 -788.1650390625 -616.3966796875 -638.75 -695.65 -616.72890625 -701.4990234375 -615.8 -710.8 L -620.45 -711.05 M -68.35 -530.7 L -259.8 -528.75 Q -324.5 -526.35 -384.1 -501.15 -403 -493.15 -420.65 -483.15 -335.22734375 -414.7623046875 -271.3 -322.15 -204.6931640625 -335.469140625 -144.25 -365.15 -71.4 -401.15 -14.75 -457.1 -4.778125 -466.9740234375 4.45 -477.3 -27.7224609375 -500.34609375 -68.35 -530.7 M -572.6 -708.85 Q -572.7466796875 -708.8505859375 -572.9 -708.85 -572.849609375 -708.60390625 -572.85 -708.45 L -572.8 -708.45 Q -572.6982421875 -708.651953125 -572.6 -708.85 M 37.8 -519.05 Q 58.7232421875 -548.6525390625 74.5 -581.25 105.2205078125 -644.6365234375 113.15 -712.65 L -1.55 -712.65 -1.5 -712.05 -60.55 -710.4 Q -61.643359375 -640.1396484375 37.8 -519.05 M 1022.9 -483.8 L 1022.75 -483.8 Q 958.05 -481.4 898.45 -456.2 835.05 -429.35 786.05 -380.5 737.25 -331.55 710.4 -268.15 682.55 -202.45 682.55 -130.6 682.55 -55 713.15 13.35 742.6 79.5 795.95 128.85 718.3 176.1 651.45 208.6 545.9 259.85 441.95 253.6 345.8 247.7 257.95 193.5 L 257.95 38.5 257.5 61.1 257.5 401.2 Q 169.55 359.8 71.85 359.8 -6.1 359.8 -78.6 386.4 -148.6 412.25 -206.45 460.1 -263.7 507.55 -302.05 571.15 -341.15 636 -355.95 710.15 L -681.2 710.15 Q -667.65 590.45 -617.8 481.25 -569.05 374.9 -490.3 287.85 -441.8 334.05 -380.15 359.25 -316.3 385.3 -246.6 385.3 -175.55 385.3 -110.6 358.15 -47.85 331.95 1 284.1 49.75 236.25 53.15 135.9 56.5 36.4 257.95 -139.1 L 257.95 -346.7 Q 264.078515625 -350.8783203125 270.05 -354.95 231.23515625 -373.1203125 188.15 -382.8 115.05 -399.25 39.05 -388.95 -38.4 -378.45 -105.55 -341.95 -170.45 -306.65 -217.25 -252.05 -264 -197.45 -254.2 -97.5 -244.5 1.6 -440.5 205.25 -442.3 207.15 -444.05 208.95 L -466.95 6.85 -497.4 -217.5 Q -525.375 -189.315625 -546.95 -154.65 -570.45 -185.7 -598.2 -211.55 -600 -193.75 -600 -175.55 -600 -99.95 -569.4 -31.6 -539.95 34.55 -486.6 83.9 -564.25 131.15 -631.1 163.65 -736.65 214.9 -840.6 208.65 -935.5 202.85 -1022.3 149.95 L -1022.3 712.65 1024.75 712.65 1024.75 -349.65 1022.9 -349.65 1022.9 -483.8 M 1022.9 -683.65 L 1024.75 -683.65 1024.75 -712.65 467.1 -712.65 Q 460.1900390625 -624.3541015625 430.85 -538.85 411.801953125 -483.6671875 384.25 -432 416.834765625 -453.6931640625 441.95 -470 558.7 -545.7 651.45 -590.7 703.4 -615.9 776.2 -624.3 850.45 -632.95 928.45 -621.8 977.8 -614.7 1022.9 -600.45 L 1022.9 -683.65 Z"
         id="path99" />
      <path
         fill="url(#Gradient_2)"
         stroke="none"
         d=" M -569.4 -31.6 Q -600 -99.95 -600 -175.55 -600 -193.75 -598.2 -211.55 -642.45 -252.75 -697.55 -280.8 -790.3 -328 -895.2 -328 -961.75 -328 -1024.6 -308.55 L -1024.6 148.55 Q -1023.45 149.25 -1022.3 149.95 -935.5 202.85 -840.6 208.65 -736.65 214.9 -631.1 163.65 -564.25 131.15 -486.6 83.9 -539.95 34.55 -569.4 -31.6 M -597.9 -712.75 Q -595.7 -712.35859375 -593.7 -712.05 L -593.2 -712.05 Q -595.415234375 -712.384765625 -597.9 -712.75 M 4.45 -477.3 Q 203.2896484375 -334.7572265625 80.65 -469.65 57.308203125 -495.3201171875 37.8 -519.05 -61.643359375 -640.1396484375 -60.55 -710.4 L -557.25 -712.05 -572.5 -709.1 Q -572.444921875 -709.1150390625 -572.45 -709.15 L -557.4 -712.05 -564.45 -712.05 Q -565.8052734375 -711.35625 -573.5 -711.05 -577.9939453125 -710.840234375 -584.65 -710.8 -584.9953125 -710.778125 -585.4 -710.8 -597.2501953125 -710.66640625 -615.75 -710.95 -618.0421875 -710.9841796875 -620.45 -711.05 L -615.8 -710.8 Q -616.72890625 -701.4990234375 -638.75 -695.65 -617.9263671875 -674.4896484375 -618.15 -626.3 -618.366796875 -578.1068359375 -546.4 -552.2 -474.44453125 -526.2470703125 -420.65 -483.15 -403 -493.15 -384.1 -501.15 -324.5 -526.35 -259.8 -528.75 L -68.35 -530.7 Q -27.7224609375 -500.34609375 4.45 -477.3 M -572.45 -708.9 L -572.45 -708.85 Q -572.47734375 -708.648828125 -572.5 -708.45 L -572.85 -708.45 Q -572.849609375 -708.60390625 -572.9 -708.85 -572.7466796875 -708.8505859375 -572.6 -708.85 L -572.6 -708.9 -572.45 -708.9 Z"
         id="path101" />
      <path
         fill="url(#Gradient_3)"
         stroke="none"
         d=" M -618.15 -626.3 Q -617.9263671875 -674.4896484375 -638.75 -695.65 -788.1650390625 -616.3966796875 -871 -611.95 -953.84765625 -607.4615234375 -1022.3 -639.05 -1023.5 -638.85 -1024.7 -638.65 L -1024.7 -308.55 Q -1024.65 -308.55 -1024.6 -308.55 -961.75 -328 -895.2 -328 -790.3 -328 -697.55 -280.8 -642.45 -252.75 -598.2 -211.55 -570.45 -185.7 -546.95 -154.65 -525.375 -189.315625 -497.4 -217.5 L -512.65 -330.2 Q -415.3595703125 -303.3 -313.45 -315.45 -299.111328125 -318.150390625 -284.45 -319.7 -277.8158203125 -320.8421875 -271.3 -322.15 -335.22734375 -414.7623046875 -420.65 -483.15 -474.44453125 -526.2470703125 -546.4 -552.2 -618.366796875 -578.1068359375 -618.15 -626.3 M -554.95 -712.5 Q -556.22734375 -712.251171875 -557.4 -712.05 L -572.45 -709.15 Q -572.444921875 -709.1150390625 -572.5 -709.1 L -557.25 -712.05 -554.95 -712.5 M -572.45 -708.85 L -572.45 -708.9 -572.6 -708.9 -572.6 -708.85 Q -572.6982421875 -708.651953125 -572.8 -708.45 L -572.85 -708.45 -572.5 -708.45 Q -572.47734375 -708.648828125 -572.45 -708.85 Z"
         id="path103" />
      <path
         fill="url(#Gradient_4)"
         stroke="none"
         d=" M 261.55 -142.25 Q 259.75 -140.7 257.95 -139.1 56.5 36.4 53.15 135.9 49.75 236.25 1 284.1 -47.85 331.95 -110.6 358.15 -175.55 385.3 -246.6 385.3 -316.3 385.3 -380.15 359.25 -441.8 334.05 -490.3 287.85 -569.05 374.9 -617.8 481.25 -667.65 590.45 -681.2 710.15 L -355.95 710.15 Q -341.15 636 -302.05 571.15 -263.7 507.55 -206.45 460.1 -148.6 412.25 -78.6 386.4 -6.1 359.8 71.85 359.8 169.55 359.8 257.5 401.2 L 257.5 61.1 257.95 38.5 261.55 -142.25 Z"
         id="path105" />
      <path
         fill="url(#Gradient_5)"
         stroke="none"
         d=" M 467.1 -712.65 Q 467.1765625 -713.6248046875 467.25 -714.6 L 113.4 -714.6 Q 113.289453125 -713.6244140625 113.15 -712.65 105.2205078125 -644.6365234375 74.5 -581.25 58.7232421875 -548.6525390625 37.8 -519.05 57.308203125 -495.3201171875 80.65 -469.65 203.2896484375 -334.7572265625 4.45 -477.3 -4.778125 -466.9740234375 -14.75 -457.1 -71.4 -401.15 -144.25 -365.15 -204.6931640625 -335.469140625 -271.3 -322.15 -277.8158203125 -320.8421875 -284.45 -319.7 -294.487890625 -317.9376953125 -304.7 -316.55 -309.0666015625 -315.9595703125 -313.45 -315.45 -415.3595703125 -303.3 -512.65 -330.2 L -497.4 -217.5 -466.95 6.85 -444.05 208.95 Q -442.3 207.15 -440.5 205.25 -244.5 1.6 -254.2 -97.5 -264 -197.45 -217.25 -252.05 -170.45 -306.65 -105.55 -341.95 -38.4 -378.45 39.05 -388.95 115.05 -399.25 188.15 -382.8 231.23515625 -373.1203125 270.05 -354.95 294.823046875 -343.376953125 317.85 -328.35 355.64453125 -378.2755859375 384.25 -432 411.801953125 -483.6671875 430.85 -538.85 460.1900390625 -624.3541015625 467.1 -712.65 Z"
         id="path107" />
      <path
         fill="url(#Gradient_6)"
         stroke="none"
         d=" M 1022.75 -483.8 L 1022.9 -483.8 1022.9 -600.45 Q 977.8 -614.7 928.45 -621.8 850.45 -632.95 776.2 -624.3 703.4 -615.9 651.45 -590.7 558.7 -545.7 441.95 -470 416.834765625 -453.6931640625 384.25 -432 355.64453125 -378.2755859375 317.85 -328.35 294.823046875 -343.376953125 270.05 -354.95 264.078515625 -350.8783203125 257.95 -346.7 L 257.95 -139.1 Q 259.75 -140.7 261.55 -142.25 L 257.95 38.5 257.95 193.5 Q 345.8 247.7 441.95 253.6 545.9 259.85 651.45 208.6 718.3 176.1 795.95 128.85 742.6 79.5 713.15 13.35 682.55 -55 682.55 -130.6 682.55 -202.45 710.4 -268.15 737.25 -331.55 786.05 -380.5 835.05 -429.35 898.45 -456.2 958.05 -481.4 1022.75 -483.8 Z"
         id="path109" />
    </g>
    <g
       id="Symbol_9_0_Layer0_0_FILL">
      <path
         fill="#FFFFFF"
         stroke="none"
         d=" M 815.3 573.8 L 815.3 -573.8 -815.3 -573.8 -815.3 573.8 815.3 573.8 Z"
         id="path112" />
    </g>
    <g
       id="Layer3_0_FILL">
      <path
         fill="#FFFFFF"
         stroke="none"
         d=" M 1409.55 45.65 Q 1409.55 34.3 1398.2 34.3 L 1001.5 34.3 Q 990.15 34.3 990.15 45.65 L 990.15 113.7 Q 990.15 125.05 1001.5 125.05 L 1398.2 125.05 Q 1409.55 125.05 1409.55 113.7 L 1409.55 45.65 Z"
         id="path115" />
    </g>
    <g
       id="Layer3_1_FILL">
      <path
         fill="#FFFFFF"
         stroke="none"
         d=" M 1189.55 45.65 Q 1189.55 34.3 1178.2 34.3 L 1001.5 34.3 Q 990.15 34.3 990.15 45.65 L 990.15 113.7 Q 990.15 125.05 1001.5 125.05 L 1178.2 125.05 Q 1189.55 125.05 1189.55 113.7 L 1189.55 45.65 Z"
         id="path118" />
    </g>
    <g
       id="Symbol_29_0_Layer0_0_FILL">
      <path
         fill="url(#Gradient_7)"
         stroke="none"
         d=" M 117.85 73.05 Q 109.55 63.95 97.25 55.9 85.25 48.1 75.25 45 64.6 41.7 61.15 45.45 43.25 65.05 44 95.85 44.3 108.5 47.95 119.35 51.5 129.9 56.95 135 62.8 140.5 75.35 137.9 86.75 135.5 99.65 127.5 112.4 119.55 120.35 110 128.95 99.55 128.05 91.35 127.15 83.25 117.85 73.05 Z"
         id="path121" />
    </g>
    <g
       id="Symbol_29_0_Layer0_1_FILL">
      <path
         fill="url(#Gradient_8)"
         stroke="none"
         d=" M 112.75 61.85 Q 102.9 55.95 90.15 53.95 78.3 52.1 66.5 53.95 54.95 55.8 46.8 60.65 38.3 65.75 36 72.75 33.8 79.55 38.55 91.1 42.85 101.4 51.35 112.55 59.5 123.3 67.85 129.95 76.65 137 81.65 136.15 90.3 134.65 100.45 125.3 110.45 116.15 116.9 104.1 123.9 91.05 123.5 80.3 123.05 68.05 112.75 61.85 Z"
         id="path124" />
    </g>
    <g
       id="Symbol_29_0_Layer0_2_MEMBER_0_FILL">
      <path
         fill="url(#Gradient_9)"
         stroke="none"
         d=" M 297.3 -92.6 Q 291 -83.6 291.45 -74.6 292.3 -56.35 302.25 -43.9 310.9 -33.1 325.15 -27.85 337.65 -23.3 350.8 -24.25 363.4 -25.1 370.2 -30.5 376.45 -35.35 381.7 -46.55 386.8 -57.55 388.65 -69.85 390.75 -83 388.2 -92.5 385.35 -103.3 377.2 -106.85 342.7 -121.7 315.1 -107.6 303.85 -101.8 297.3 -92.6 Z"
         id="path127" />
    </g>
    <g
       id="Symbol_24_0_Layer0_0_FILL">
      <path
         fill="#FFFFFF"
         stroke="none"
         d=" M 111.65 90.55 Q 113.05 81.8 111.35 75.45 109.45 68.25 104 65.9 81 56 62.6 65.4 55.1 69.25 50.75 75.4 46.55 81.4 46.85 87.4 47.4 99.55 54.05 107.85 59.8 115.05 69.3 118.55 77.65 121.6 86.4 120.95 94.8 120.4 99.35 116.8 103.5 113.55 107 106.1 110.4 98.75 111.65 90.55 Z"
         id="path130" />
    </g>
    <g
       id="Symbol_27_0_Layer0_0_FILL">
      <path
         fill="url(#Gradient_7)"
         stroke="none"
         d=" M 117.85 73.05 Q 109.55 63.95 97.25 55.9 85.25 48.1 75.25 45 64.6 41.7 61.15 45.45 43.25 65.05 44 95.85 44.3 108.5 47.95 119.35 51.5 129.9 56.95 135 62.8 140.5 75.35 137.9 86.75 135.5 99.65 127.5 112.4 119.55 120.35 110 128.95 99.55 128.05 91.35 127.15 83.25 117.85 73.05 Z"
         id="path133" />
    </g>
    <g
       id="Symbol_27_0_Layer0_1_FILL">
      <path
         fill="url(#Gradient_10)"
         stroke="none"
         d=" M 112.75 61.85 Q 102.9 55.95 90.15 53.95 78.3 52.1 66.5 53.95 54.95 55.8 46.8 60.65 38.3 65.75 36 72.75 33.8 79.55 38.55 91.1 42.85 101.4 51.35 112.55 59.5 123.3 67.85 129.95 76.65 137 81.65 136.15 90.3 134.65 100.45 125.3 110.45 116.15 116.9 104.1 123.9 91.05 123.5 80.3 123.05 68.05 112.75 61.85 Z"
         id="path136" />
    </g>
    <g
       id="Symbol_27_0_Layer0_2_MEMBER_0_FILL">
      <path
         fill="url(#Gradient_9)"
         stroke="none"
         d=" M 297.3 -92.6 Q 291 -83.6 291.45 -74.6 292.3 -56.35 302.25 -43.9 310.9 -33.1 325.15 -27.85 337.65 -23.3 350.8 -24.25 363.4 -25.1 370.2 -30.5 376.45 -35.35 381.7 -46.55 386.8 -57.55 388.65 -69.85 390.75 -83 388.2 -92.5 385.35 -103.3 377.2 -106.85 342.7 -121.7 315.1 -107.6 303.85 -101.8 297.3 -92.6 Z"
         id="path139" />
    </g>
    <g
       id="Symbol_28_0_Layer0_0_FILL">
      <path
         fill="url(#Gradient_7)"
         stroke="none"
         d=" M 117.85 73.05 Q 109.55 63.95 97.25 55.9 85.25 48.1 75.25 45 64.6 41.7 61.15 45.45 43.25 65.05 44 95.85 44.3 108.5 47.95 119.35 51.5 129.9 56.95 135 62.8 140.5 75.35 137.9 86.75 135.5 99.65 127.5 112.4 119.55 120.35 110 128.95 99.55 128.05 91.35 127.15 83.25 117.85 73.05 Z"
         id="path142" />
    </g>
    <g
       id="Symbol_28_0_Layer0_1_FILL">
      <path
         fill="url(#Gradient_11)"
         stroke="none"
         d=" M 112.75 61.85 Q 102.9 55.95 90.15 53.95 78.3 52.1 66.5 53.95 54.95 55.8 46.8 60.65 38.3 65.75 36 72.75 33.8 79.55 38.55 91.1 42.85 101.4 51.35 112.55 59.5 123.3 67.85 129.95 76.65 137 81.65 136.15 90.3 134.65 100.45 125.3 110.45 116.15 116.9 104.1 123.9 91.05 123.5 80.3 123.05 68.05 112.75 61.85 Z"
         id="path145" />
    </g>
    <g
       id="Symbol_28_0_Layer0_2_MEMBER_0_FILL">
      <path
         fill="url(#Gradient_9)"
         stroke="none"
         d=" M 297.3 -92.6 Q 291 -83.6 291.45 -74.6 292.3 -56.35 302.25 -43.9 310.9 -33.1 325.15 -27.85 337.65 -23.3 350.8 -24.25 363.4 -25.1 370.2 -30.5 376.45 -35.35 381.7 -46.55 386.8 -57.55 388.65 -69.85 390.75 -83 388.2 -92.5 385.35 -103.3 377.2 -106.85 342.7 -121.7 315.1 -107.6 303.85 -101.8 297.3 -92.6 Z"
         id="path148" />
    </g>
    <g
       id="Symbol_26_copy_0_Layer0_0_FILL">
      <path
         fill="url(#Gradient_7)"
         stroke="none"
         d=" M 117.85 73.05 Q 109.55 63.95 97.25 55.9 85.25 48.1 75.25 45 64.6 41.7 61.15 45.45 43.25 65.05 44 95.85 44.3 108.5 47.95 119.35 51.5 129.9 56.95 135 62.8 140.5 75.35 137.9 86.75 135.5 99.65 127.5 112.4 119.55 120.35 110 128.95 99.55 128.05 91.35 127.15 83.25 117.85 73.05 Z"
         id="path151" />
    </g>
    <g
       id="Symbol_26_copy_0_Layer0_1_FILL">
      <path
         fill="#0076BA"
         stroke="none"
         d=" M 112.75 61.85 Q 102.9 55.95 90.15 53.95 78.3 52.1 66.5 53.95 54.95 55.8 46.8 60.65 38.3 65.75 36 72.75 33.8 79.55 38.55 91.1 42.85 101.4 51.35 112.55 59.5 123.3 67.85 129.95 76.65 137 81.65 136.15 90.3 134.65 100.45 125.3 110.45 116.15 116.9 104.1 123.9 91.05 123.5 80.3 123.05 68.05 112.75 61.85 Z"
         id="path154" />
    </g>
    <g
       id="Symbol_26_copy_0_Layer0_2_MEMBER_0_FILL">
      <path
         fill="url(#Gradient_12)"
         stroke="none"
         d=" M 297.3 -92.6 Q 291 -83.6 291.45 -74.6 292.3 -56.35 302.25 -43.9 310.9 -33.1 325.15 -27.85 337.65 -23.3 350.8 -24.25 363.4 -25.1 370.2 -30.5 376.45 -35.35 381.7 -46.55 386.8 -57.55 388.65 -69.85 390.75 -83 388.2 -92.5 385.35 -103.3 377.2 -106.85 342.7 -121.7 315.1 -107.6 303.85 -101.8 297.3 -92.6 Z"
         id="path157" />
    </g>
    <g
       id="Symbol_26_copy_2_0_Layer0_0_FILL">
      <path
         fill="url(#Gradient_7)"
         stroke="none"
         d=" M 117.85 73.05 Q 109.55 63.95 97.25 55.9 85.25 48.1 75.25 45 64.6 41.7 61.15 45.45 43.25 65.05 44 95.85 44.3 108.5 47.95 119.35 51.5 129.9 56.95 135 62.8 140.5 75.35 137.9 86.75 135.5 99.65 127.5 112.4 119.55 120.35 110 128.95 99.55 128.05 91.35 127.15 83.25 117.85 73.05 Z"
         id="path160" />
    </g>
    <g
       id="Symbol_26_copy_2_0_Layer0_1_FILL">
      <path
         fill="#0076BA"
         stroke="none"
         d=" M 112.75 61.85 Q 102.9 55.95 90.15 53.95 78.3 52.1 66.5 53.95 54.95 55.8 46.8 60.65 38.3 65.75 36 72.75 33.8 79.55 38.55 91.1 42.85 101.4 51.35 112.55 59.5 123.3 67.85 129.95 76.65 137 81.65 136.15 90.3 134.65 100.45 125.3 110.45 116.15 116.9 104.1 123.9 91.05 123.5 80.3 123.05 68.05 112.75 61.85 Z"
         id="path163" />
    </g>
    <g
       id="Symbol_26_copy_2_0_Layer0_2_FILL">
      <path
         fill="url(#Gradient_12)"
         stroke="none"
         d=" M 297.3 -92.6 Q 291 -83.6 291.45 -74.6 292.3 -56.35 302.25 -43.9 310.9 -33.1 325.15 -27.85 337.65 -23.3 350.8 -24.25 363.4 -25.1 370.2 -30.5 376.45 -35.35 381.7 -46.55 386.8 -57.55 388.65 -69.85 390.75 -83 388.2 -92.5 385.35 -103.3 377.2 -106.85 342.7 -121.7 315.1 -107.6 303.85 -101.8 297.3 -92.6 Z"
         id="path166" />
    </g>
    <g
       id="Symbol_26_copy_2_0_Layer0_3_FILL">
      <path
         fill="#BC5913"
         stroke="none"
         d=" M 111.65 90.55 Q 113.05 81.8 111.35 75.45 109.45 68.25 104 65.9 81 56 62.6 65.4 55.1 69.25 50.75 75.4 46.55 81.4 46.85 87.4 47.4 99.55 54.05 107.85 59.8 115.05 69.3 118.55 77.65 121.6 86.4 120.95 94.8 120.4 99.35 116.8 103.5 113.55 107 106.1 110.4 98.75 111.65 90.55 Z"
         id="path169" />
    </g>
    <g
       id="Symbol_25_0_Layer1_0_FILL">
      <path
         fill="url(#Gradient_7)"
         stroke="none"
         d=" M 117.85 73.05 Q 109.55 63.95 97.25 55.9 85.25 48.1 75.25 45 64.6 41.7 61.15 45.45 43.25 65.05 44 95.85 44.3 108.5 47.95 119.35 51.5 129.9 56.95 135 62.8 140.5 75.35 137.9 86.75 135.5 99.65 127.5 112.4 119.55 120.35 110 128.95 99.55 128.05 91.35 127.15 83.25 117.85 73.05 Z"
         id="path172" />
    </g>
    <g
       id="Symbol_25_0_Layer1_1_FILL">
      <path
         fill="url(#Gradient_13)"
         stroke="none"
         d=" M 112.75 61.85 Q 102.9 55.95 90.15 53.95 78.3 52.1 66.5 53.95 54.95 55.8 46.8 60.65 38.3 65.75 36 72.75 33.8 79.55 38.55 91.1 42.85 101.4 51.35 112.55 59.5 123.3 67.85 129.95 76.65 137 81.65 136.15 90.3 134.65 100.45 125.3 110.45 116.15 116.9 104.1 123.9 91.05 123.5 80.3 123.05 68.05 112.75 61.85 Z"
         id="path175" />
    </g>
    <g
       id="Symbol_25_0_Layer1_2_MEMBER_0_FILL">
      <path
         fill="url(#Gradient_12)"
         stroke="none"
         d=" M 297.3 -92.6 Q 291 -83.6 291.45 -74.6 292.3 -56.35 302.25 -43.9 310.9 -33.1 325.15 -27.85 337.65 -23.3 350.8 -24.25 363.4 -25.1 370.2 -30.5 376.45 -35.35 381.7 -46.55 386.8 -57.55 388.65 -69.85 390.75 -83 388.2 -92.5 385.35 -103.3 377.2 -106.85 342.7 -121.7 315.1 -107.6 303.85 -101.8 297.3 -92.6 Z"
         id="path178" />
    </g>
    <g
       id="Symbol_43_0_Layer0_0_FILL">
      <path
         fill="#444444"
         stroke="none"
         d=" M 18.2 -6.25 Q 17.25 -6.15 16.45 -5.55 L 7.45 1.55 -5.35 -28.7 Q -5.9 -30.05 -7.15 -30.55 -8.45 -31.1 -9.7 -30.65 -10.95 -30.25 -11.65 -29 L -33.4 10.3 Q -33.9 11.15 -33.85 12.1 -33.748046875 13.100390625 -33.45 13.35 -33.1640625 13.65390625 -32.25 14.4 -31.3361328125 15.1958984375 -30.8 15.65 -30.2521484375 16.0994140625 -30.2 16.15 -30.1 16.2 -29.55 16.6 -12.55 28.1 3.55 29.1 19.05 30.1 30.85 21.2 31.95 20.4 32.2 19 32.45 17.6 31.7 16.5 L 21.55 -4.65 Q 21 -5.5 20.1 -5.95 19.2 -6.4 18.2 -6.25 Z"
         id="path181" />
    </g>
    <g
       id="Symbol_44_0_Layer0_0_FILL">
      <path
         fill="#444444"
         stroke="none"
         d=" M 8.3 -8.3 Q 4.85 -11.75 0 -11.75 -4.9 -11.75 -8.3 -8.3 -11.75 -4.9 -11.75 0 -11.75 4.85 -8.3 8.3 -4.9 11.75 0 11.75 4.85 11.75 8.3 8.3 11.75 4.85 11.75 0 11.75 -4.9 8.3 -8.3 Z"
         id="path184" />
    </g>
    <g
       id="Symbol_45_0_Layer0_0_FILL">
      <path
         fill="#444444"
         stroke="none"
         d=" M -110.05 -189.85 Q -160.45 -160.45 -189.85 -110.05 -219.25 -59.65 -219.25 0 -219.25 59.65 -189.85 110.05 -160.45 160.45 -110.05 189.85 -59.65 219.25 0 219.25 59.65 219.25 110.05 189.85 160.45 160.45 189.85 110.05 219.25 59.65 219.25 0 219.25 -59.65 189.85 -110.05 160.45 -160.45 110.05 -189.85 59.65 -219.25 0 -219.25 -59.65 -219.25 -110.05 -189.85 M -129.2 -129.2 Q -104.7 -153.65 -70.95 -168.15 -37.1 -182.7 0 -182.7 37.15 -182.7 70.95 -168.15 104.7 -153.65 129.2 -129.2 153.65 -104.7 168.15 -70.95 182.7 -37.1 182.7 0 182.8 36.95 168.15 70.95 153.6 104.8 129.2 129.2 104.7 153.65 70.95 168.15 37.2 182.75 0 182.75 -37 182.75 -70.95 168.15 -104.7 153.65 -129.2 129.2 -153.6 104.8 -168.15 70.95 -182.75 37 -182.75 0 -182.75 -37 -168.15 -70.95 -153.65 -104.7 -129.2 -129.2 M 103.35 37.25 Q 99.9 30.55 92.8 28.3 85.7 26 78.8 29.4 72 32.8 69.65 40.25 62.55 63.05 43.25 77.25 24 91.35 0 91.35 -23.95 91.35 -43.25 77.25 -62.55 63.05 -69.65 40.25 -71.95 32.85 -78.65 29.4 -85.45 26 -92.5 28.3 -99.9 30.55 -103.35 37.25 -106.75 43.95 -104.5 51.1 -93.95 85.6 -65.1 106.8 -36.2 127.9 0 127.9 36.2 127.9 65.1 106.8 93.95 85.6 104.5 51.1 106.75 43.95 103.35 37.25 M 47.25 -47.25 Q 57.95 -36.55 73.1 -36.55 88.3 -36.55 98.9 -47.25 109.65 -58 109.65 -73.1 109.65 -88.2 98.9 -98.9 88.3 -109.6 73.1 -109.6 57.95 -109.6 47.25 -98.9 36.55 -88.25 36.55 -73.1 36.55 -57.95 47.25 -47.25 M -98.95 -98.9 Q -109.65 -88.1 -109.65 -73.1 -109.65 -58 -98.95 -47.25 -88.25 -36.55 -73.1 -36.55 -57.95 -36.55 -47.25 -47.25 -36.55 -57.9 -36.55 -73.1 -36.55 -88.25 -47.25 -98.9 -57.95 -109.6 -73.1 -109.6 -88.25 -109.6 -98.95 -98.9 Z"
         id="path187" />
      <path
         fill="#FBB940"
         stroke="none"
         d=" M -70.95 -168.15 Q -104.7 -153.65 -129.2 -129.2 -153.65 -104.7 -168.15 -70.95 -182.75 -37 -182.75 0 -182.75 37 -168.15 70.95 -153.6 104.8 -129.2 129.2 -104.7 153.65 -70.95 168.15 -37 182.75 0 182.75 37.2 182.75 70.95 168.15 104.7 153.65 129.2 129.2 153.6 104.8 168.15 70.95 182.8 36.95 182.7 0 182.7 -37.1 168.15 -70.95 153.65 -104.7 129.2 -129.2 104.7 -153.65 70.95 -168.15 37.15 -182.7 0 -182.7 -37.1 -182.7 -70.95 -168.15 M -109.65 -73.1 Q -109.65 -88.1 -98.95 -98.9 -88.25 -109.6 -73.1 -109.6 -57.95 -109.6 -47.25 -98.9 -36.55 -88.25 -36.55 -73.1 -36.55 -57.9 -47.25 -47.25 -57.95 -36.55 -73.1 -36.55 -88.25 -36.55 -98.95 -47.25 -109.65 -58 -109.65 -73.1 M 73.1 -36.55 Q 57.95 -36.55 47.25 -47.25 36.55 -57.95 36.55 -73.1 36.55 -88.25 47.25 -98.9 57.95 -109.6 73.1 -109.6 88.3 -109.6 98.9 -98.9 109.65 -88.2 109.65 -73.1 109.65 -58 98.9 -47.25 88.3 -36.55 73.1 -36.55 M 92.8 28.3 Q 99.9 30.55 103.35 37.25 106.75 43.95 104.5 51.1 93.95 85.6 65.1 106.8 36.2 127.9 0 127.9 -36.2 127.9 -65.1 106.8 -93.95 85.6 -104.5 51.1 -106.75 43.95 -103.35 37.25 -99.9 30.55 -92.5 28.3 -85.45 26 -78.65 29.4 -71.95 32.85 -69.65 40.25 -62.55 63.05 -43.25 77.25 -23.95 91.35 0 91.35 24 91.35 43.25 77.25 62.55 63.05 69.65 40.25 72 32.8 78.8 29.4 85.7 26 92.8 28.3 Z"
         id="path189" />
    </g>
    <g
       id="Symbol_46_0_Layer0_0_FILL">
      <path
         fill="#4F3A16"
         stroke="none"
         d=" M -11.55 -2.75 Q -11.55 -9.1 -8.25 -13.2 -4.95 -17.25 0.1 -17.25 4.8 -17.25 8.35 -13.45 11.85 -9.6 11.85 -2.4 11.85 8.65 4.7 10.9 L 3.95 19.3 19.55 19.3 19.55 10.6 18.5 10.6 Q 18.45 12.1 17.6 13.1 16.75 14.1 14.1 14.1 L 6.4 14.1 6.65 12.25 Q 12 10.7 15.15 6.7 18.25 2.65 18.25 -3.1 18.25 -10.2 13.2 -14.75 8.2 -19.3 0.25 -19.3 -7.95 -19.3 -13 -14.5 -18.1 -9.65 -18.1 -2.85 -18.1 3.3 -14.45 7.35 -10.8 11.35 -6.35 12.25 L -6.3 14.1 -13.9 14.1 Q -16.2 14.1 -17.3 13.35 -18.35 12.55 -18.45 10.6 L -19.5 10.6 -19.5 19.3 -3.9 19.3 -4.4 10.9 Q -8.6 9.35 -10.05 5.6 -11.55 1.8 -11.55 -2.75 Z"
         id="path192" />
    </g>
    <g
       id="Symbol_48_0_Layer0_0_FILL">
      <path
         fill="url(#Gradient_7)"
         stroke="none"
         d=" M 117.85 73.05 Q 109.55 63.95 97.25 55.9 85.25 48.1 75.25 45 64.6 41.7 61.15 45.45 43.25 65.05 44 95.85 44.3 108.5 47.95 119.35 51.5 129.9 56.95 135 62.8 140.5 75.35 137.9 86.75 135.5 99.65 127.5 112.4 119.55 120.35 110 128.95 99.55 128.05 91.35 127.15 83.25 117.85 73.05 Z"
         id="path195" />
    </g>
    <g
       id="Symbol_48_0_Layer0_1_FILL">
      <path
         fill="url(#Gradient_10)"
         stroke="none"
         d=" M 112.75 61.85 Q 102.9 55.95 90.15 53.95 78.3 52.1 66.5 53.95 54.95 55.8 46.8 60.65 38.3 65.75 36 72.75 33.8 79.55 38.55 91.1 42.85 101.4 51.35 112.55 59.5 123.3 67.85 129.95 76.65 137 81.65 136.15 90.3 134.65 100.45 125.3 110.45 116.15 116.9 104.1 123.9 91.05 123.5 80.3 123.05 68.05 112.75 61.85 Z"
         id="path198" />
    </g>
    <g
       id="Symbol_48_0_Layer0_2_FILL">
      <path
         fill="url(#Gradient_9)"
         stroke="none"
         d=" M 297.3 -92.6 Q 291 -83.6 291.45 -74.6 292.3 -56.35 302.25 -43.9 310.9 -33.1 325.15 -27.85 337.65 -23.3 350.8 -24.25 363.4 -25.1 370.2 -30.5 376.45 -35.35 381.7 -46.55 386.8 -57.55 388.65 -69.85 390.75 -83 388.2 -92.5 385.35 -103.3 377.2 -106.85 342.7 -121.7 315.1 -107.6 303.85 -101.8 297.3 -92.6 Z"
         id="path201" />
    </g>
    <g
       id="Symbol_48_0_Layer0_3_FILL">
      <path
         fill="#FFFFFF"
         stroke="none"
         d=" M 111.65 90.55 Q 113.05 81.8 111.35 75.45 109.45 68.25 104 65.9 81 56 62.6 65.4 55.1 69.25 50.75 75.4 46.55 81.4 46.85 87.4 47.4 99.55 54.05 107.85 59.8 115.05 69.3 118.55 77.65 121.6 86.4 120.95 94.8 120.4 99.35 116.8 103.5 113.55 107 106.1 110.4 98.75 111.65 90.55 Z"
         id="path204" />
    </g>
    <g
       id="Symbol_30_0_Layer0_0_FILL">
      <path
         fill="#000000"
         stroke="none"
         d=" M 34.25 -110.5 Q 33.75 -110.6 33.25 -110.6 L -71.55 -110.6 Q -75.15 -110.6 -77.7 -108.05 -80.25 -105.55 -80.25 -101.95 L -80.25 101.9 Q -80.25 105.55 -77.7 108.05 -75.15 110.6 -71.55 110.6 L 71.6 110.6 Q 75.15 110.6 77.7 108.05 80.25 105.5 80.25 101.9 L 80.25 -57.15 80.2 -57.6 Q 80.15 -59.25 79.2 -60.4 L 36.55 -109.15 36.5 -109.15 Q 36.1 -109.6 35.65 -109.9 L 35.35 -110.05 Q 34.95 -110.3 34.5 -110.4 L 34.25 -110.5 M 30.2 -54.5 Q 31.45 -53.2 33.25 -53.2 L 71.6 -53.2 71.6 99.6 -71.55 99.6 -71.55 -101.95 28.95 -101.95 28.95 -57.55 Q 28.95 -55.75 30.2 -54.5 Z"
         id="path207" />
      <path
         fill="#F75B2F"
         stroke="none"
         d=" M 33.25 -53.2 Q 31.45 -53.2 30.2 -54.5 28.95 -55.75 28.95 -57.55 L 28.95 -101.95 -71.55 -101.95 -71.55 99.6 71.6 99.6 71.6 -53.2 33.25 -53.2 Z"
         id="path209" />
    </g>
    <g
       id="Duplicate_Items_Folder_Symbol_1_0_Layer1_0_FILL">
      <path
         fill="#F75B2F"
         stroke="none"
         d=" M 50.2 -0.5 Q 50.2 -21.8 35.15 -36.85 20.15 -51.85 -1.15 -51.85 -22.45 -51.85 -37.5 -36.85 -52.55 -21.8 -52.55 -0.5 -52.55 20.8 -37.5 35.85 -22.45 50.9 -1.15 50.9 20.15 50.9 35.15 35.85 50.2 20.8 50.2 -0.5 Z"
         id="path212" />
    </g>
    <g
       id="Duplicate_Items_Folder_Symbol_1_0_Layer0_0_FILL">
      <path
         fill="#444444"
         stroke="none"
         d=" M 23.65 -56.1 Q 12.35 -60.95 0 -60.95 -11.7 -60.95 -22.6 -56.55 -33.45 -52.15 -42 -44.15 L -52.3 -54.35 Q -54.7 -56.85 -57.8 -55.45 -60.95 -54.1 -60.95 -50.8 L -60.95 -15.25 Q -60.95 -13.2 -59.45 -11.65 -57.95 -10.15 -55.9 -10.15 L -20.3 -10.15 Q -17 -10.15 -15.65 -13.35 -14.3 -16.45 -16.75 -18.8 L -27.6 -29.75 Q -22.05 -35 -14.95 -37.8 -7.8 -40.65 0 -40.65 8.25 -40.65 15.75 -37.4 23.25 -34.2 28.75 -28.75 34.2 -23.25 37.4 -15.75 40.65 -8.25 40.65 0 40.65 8.25 37.4 15.75 34.2 23.25 28.75 28.75 23.25 34.2 15.75 37.4 8.3 40.65 0 40.65 -9.45 40.65 -17.85 36.5 -26.25 32.4 -32.05 24.85 -32.65 24.05 -33.9 23.9 -35.1 23.9 -35.85 24.6 L -46.75 35.55 Q -47.4 36.2 -47.45 37.2 -47.45 38.15 -46.9 39 -38.25 49.45 -25.95 55.2 -13.65 60.95 0 60.95 12.35 60.95 23.65 56.1 34.9 51.3 43.1 43.1 51.25 34.95 56.1 23.65 60.95 12.35 60.95 0 60.95 -12.4 56.1 -23.65 51.3 -34.9 43.1 -43.1 34.9 -51.3 23.65 -56.1 Z"
         id="path215" />
    </g>
    <g
       id="Symbol_31_0_Layer1_0_FILL">
      <path
         fill="#0076BA"
         stroke="none"
         d=" M 17.1 32.7 L 17.1 21.35 17.1 12.5 -18.25 12.5 -18.25 21.35 -18.25 32.7 17.1 32.7 Z"
         id="path218" />
      <path
         fill="#F75B2F"
         stroke="none"
         d=" M 28.9 -21.6 L -29.65 -21.6 -29.65 21.35 -18.25 21.35 -18.25 12.5 17.1 12.5 17.1 21.35 28.9 21.35 28.9 -21.6 Z"
         id="path220" />
    </g>
    <g
       id="Symbol_31_0_Layer0_0_FILL">
      <path
         fill="#030104"
         stroke="none"
         d=" M 19.1 35.75 L 19.1 11.9 -19.05 11.9 -19.05 35.75 19.1 35.75 M 14.35 26.2 L 14.35 31 -14.25 31 -14.25 26.2 14.35 26.2 M 14.35 16.7 L 14.35 21.45 -14.25 21.45 -14.25 16.7 14.35 16.7 M 19.1 -11.9 L 19.1 -35.75 -19.05 -35.75 -19.05 -11.9 19.1 -11.9 M 35.3 -18.35 Q 32.2 -21.45 28.65 -21.45 L 23.85 -21.45 23.85 -7.15 -23.8 -7.15 -23.8 -21.45 -28.55 -21.45 Q -32.15 -21.45 -35 -18.35 -38.1 -15.5 -38.1 -11.9 L -38.1 11.9 Q -38.1 15.5 -35 18.6 -32.15 21.45 -28.55 21.45 L -23.8 21.45 -23.8 7.15 23.85 7.15 23.85 21.45 28.65 21.45 Q 32.2 21.45 35.3 18.6 38.15 15.5 38.15 11.9 L 38.15 -11.9 Q 38.15 -15.5 35.3 -18.35 Z"
         id="path223" />
    </g>
    <g
       id="Symbol_35_0_Layer0_0_FILL">
      <path
         fill="#000000"
         stroke="none"
         d=" M 7.3 -23.6 Q 7.2 -23.65 7.1 -23.65 L -15.3 -23.65 Q -16.1 -23.65 -16.65 -23.05 -17.15 -22.55 -17.15 -21.8 L -17.15 21.85 Q -17.15 22.55 -16.65 23.1 -16.1 23.7 -15.3 23.7 L 15.3 23.7 Q 16.05 23.7 16.6 23.1 17.15 22.55 17.15 21.85 L 17.15 -12.3 Q 17.15 -12.65 16.95 -12.9 L 7.8 -23.35 Q 7.7 -23.4 7.6 -23.5 L 7.55 -23.55 Q 7.45 -23.55 7.4 -23.55 L 7.3 -23.6 M 6.45 -11.6 Q 6.7 -11.35 7.1 -11.35 L 15.3 -11.35 15.3 21.35 -15.3 21.35 -15.3 -21.8 6.15 -21.8 6.15 -12.3 Q 6.15 -11.9 6.45 -11.6 Z"
         id="path226" />
      <path
         fill="#F75B2F"
         stroke="none"
         d=" M 7.1 -11.35 Q 6.7 -11.35 6.45 -11.6 6.15 -11.9 6.15 -12.3 L 6.15 -21.8 -15.3 -21.8 -15.3 21.35 15.3 21.35 15.3 -11.35 7.1 -11.35 Z"
         id="path228" />
    </g>
    <g
       id="Symbol_26_0_Layer0_0_FILL">
      <path
         fill="url(#Gradient_7)"
         stroke="none"
         d=" M 117.85 73.05 Q 109.55 63.95 97.25 55.9 85.25 48.1 75.25 45 64.6 41.7 61.15 45.45 43.25 65.05 44 95.85 44.3 108.5 47.95 119.35 51.5 129.9 56.95 135 62.8 140.5 75.35 137.9 86.75 135.5 99.65 127.5 112.4 119.55 120.35 110 128.95 99.55 128.05 91.35 127.15 83.25 117.85 73.05 Z"
         id="path231" />
    </g>
    <g
       id="Symbol_26_0_Layer0_1_FILL">
      <path
         fill="url(#Gradient_14)"
         stroke="none"
         d=" M 112.75 61.85 Q 102.9 55.95 90.15 53.95 78.3 52.1 66.5 53.95 54.95 55.8 46.8 60.65 38.3 65.75 36 72.75 33.8 79.55 38.55 91.1 42.85 101.4 51.35 112.55 59.5 123.3 67.85 129.95 76.65 137 81.65 136.15 90.3 134.65 100.45 125.3 110.45 116.15 116.9 104.1 123.9 91.05 123.5 80.3 123.05 68.05 112.75 61.85 Z"
         id="path234" />
    </g>
    <g
       id="Symbol_26_0_Layer0_2_MEMBER_0_FILL">
      <path
         fill="url(#Gradient_12)"
         stroke="none"
         d=" M 297.3 -92.6 Q 291 -83.6 291.45 -74.6 292.3 -56.35 302.25 -43.9 310.9 -33.1 325.15 -27.85 337.65 -23.3 350.8 -24.25 363.4 -25.1 370.2 -30.5 376.45 -35.35 381.7 -46.55 386.8 -57.55 388.65 -69.85 390.75 -83 388.2 -92.5 385.35 -103.3 377.2 -106.85 342.7 -121.7 315.1 -107.6 303.85 -101.8 297.3 -92.6 Z"
         id="path237" />
    </g>
    <g
       id="Symbol_32_0_Layer0_0_FILL">
      <path
         fill="#000000"
         stroke="none"
         d=" M 38.5 -36.95 Q 38.5 -41.8 33.65 -41.8 L -33.65 -41.8 Q -38.5 -41.8 -38.5 -36.95 L -38.5 36.95 Q -38.5 41.8 -33.65 41.8 L 33.65 41.8 Q 38.5 41.8 38.5 36.95 L 38.5 -36.95 M 22.9 -25.45 Q 21.5 -24 19.5 -24 L -19.5 -24 Q -21.5 -24 -22.95 -25.45 -24.35 -26.85 -24.35 -28.85 L -24.35 -29.05 Q -24.35 -31.05 -22.95 -32.5 -21.5 -33.9 -19.5 -33.9 L 19.5 -33.9 Q 21.5 -33.9 22.9 -32.5 24.35 -31.05 24.35 -29.05 L 24.35 -28.85 Q 24.35 -26.85 22.9 -25.45 Z"
         id="path240" />
    </g>
    <g
       id="Symbol_37_copy_0_Layer0_0_FILL">
      <path
         fill="#000000"
         stroke="none"
         d=" M 3.55 -18.55 L -3.55 -18.55 -17.35 18.55 -9.2 18.55 -6.7 10.9 6.75 10.9 9.3 18.55 17.4 18.55 3.55 -18.55 M 4.65 4.7 L -4.6 4.7 0 -9.2 4.65 4.7 Z"
         id="path243" />
    </g>
    <g
       id="Symbol_37_0_Layer0_0_FILL">
      <path
         fill="#FFFFFF"
         stroke="none"
         d=" M 3.55 -18.55 L -3.55 -18.55 -17.35 18.55 -9.2 18.55 -6.7 10.9 6.75 10.9 9.3 18.55 17.4 18.55 3.55 -18.55 M 4.65 4.7 L -4.6 4.7 0 -9.2 4.65 4.7 Z"
         id="path246" />
    </g>
    <g
       id="Layer2_2_FILL">
      <path
         fill="#000000"
         stroke="none"
         d=" M 1510.45 144 L 1510.45 144.05 Q 1510.45 147.9 1513.15 150.6 1515.9 153.35 1519.75 153.35 L 1578.85 153.35 Q 1582.7 153.35 1585.4 150.6 1588.15 147.9 1588.15 144.05 L 1588.15 144 Q 1588.15 140.15 1585.4 137.4 1582.7 134.7 1578.85 134.7 L 1519.75 134.7 Q 1515.9 134.7 1513.15 137.4 1510.45 140.15 1510.45 144 Z"
         id="path249" />
    </g>
    <g
       id="Layer2_3_FILL">
      <path
         fill="#BC5913"
         stroke="none"
         d=" M 1510.45 144 L 1510.45 144.05 Q 1510.45 147.9 1513.15 150.6 1515.9 153.35 1519.75 153.35 L 1578.85 153.35 Q 1582.7 153.35 1585.4 150.6 1588.15 147.9 1588.15 144.05 L 1588.15 144 Q 1588.15 140.15 1585.4 137.4 1582.7 134.7 1578.85 134.7 L 1519.75 134.7 Q 1515.9 134.7 1513.15 137.4 1510.45 140.15 1510.45 144 Z"
         id="path252" />
    </g>
    <g
       id="Symbol_39_0_Layer0_0_FILL">
      <path
         fill="#444444"
         stroke="none"
         d=" M -21.65 22.35 Q -21.6 22.35 -21.5 22.35 L 18.15 22.35 Q 19.6 22.35 20.65 21.35 21.65 20.3 21.65 18.85 21.65 17.4 20.65 16.4 19.6 15.35 18.15 15.35 L -21.5 15.35 Q -21.6 15.35 -21.65 15.35 L -21.65 22.35 M -21.65 12.9 Q -21.6 12.9 -21.5 12.9 L 1.7 12.9 Q 3.15 12.9 4.2 11.9 5.2 10.85 5.2 9.4 5.2 7.95 4.2 6.95 3.15 5.9 1.7 5.9 L -21.5 5.9 Q -21.6 5.9 -21.65 5.9 L -21.65 12.9 M 20.65 -2.45 Q 19.6 -3.5 18.15 -3.5 L -21.5 -3.5 Q -21.6 -3.5 -21.65 -3.5 L -21.65 3.5 Q -21.6 3.5 -21.5 3.5 L 18.15 3.5 Q 19.6 3.5 20.65 2.5 21.65 1.45 21.65 0 21.65 -1.45 20.65 -2.45 M 20.65 -16.35 Q 21.65 -17.4 21.65 -18.85 21.65 -20.3 20.65 -21.3 19.6 -22.35 18.15 -22.35 L -21.5 -22.35 Q -21.6 -22.35 -21.65 -22.35 L -21.65 -15.35 Q -21.6 -15.35 -21.5 -15.35 L 18.15 -15.35 Q 19.6 -15.35 20.65 -16.35 M 1.7 -5.9 Q 3.15 -5.9 4.2 -6.9 5.2 -7.95 5.2 -9.4 5.2 -10.85 4.2 -11.85 3.15 -12.9 1.7 -12.9 L -21.5 -12.9 Q -21.6 -12.9 -21.65 -12.9 L -21.65 -5.9 Q -21.6 -5.9 -21.5 -5.9 L 1.7 -5.9 Z"
         id="path255" />
    </g>
    <g
       id="Symbol_40_0_Layer0_0_FILL">
      <path
         fill="#444444"
         stroke="none"
         d=" M -22.25 16.4 Q -23.3 17.4 -23.3 18.85 -23.3 20.3 -22.25 21.35 -21.25 22.35 -19.8 22.35 L 19.85 22.35 Q 21.3 22.35 22.35 21.35 23.35 20.3 23.35 18.85 23.35 17.4 22.35 16.4 21.3 15.35 19.85 15.35 L -19.8 15.35 Q -21.25 15.35 -22.25 16.4 M -16.1 11.9 Q -15.1 12.9 -13.65 12.9 L 15.25 12.9 Q 16.7 12.9 17.75 11.9 18.75 10.85 18.75 9.4 18.75 7.95 17.75 6.95 16.7 5.9 15.25 5.9 L -13.65 5.9 Q -15.1 5.9 -16.1 6.95 -17.15 7.95 -17.15 9.4 -17.15 10.85 -16.1 11.9 M 22.35 -2.45 Q 21.3 -3.5 19.85 -3.5 L -19.8 -3.5 Q -21.25 -3.5 -22.25 -2.45 -23.3 -1.45 -23.3 0 -23.3 1.45 -22.25 2.5 -21.25 3.5 -19.8 3.5 L 19.85 3.5 Q 21.3 3.5 22.35 2.5 23.35 1.45 23.35 0 23.35 -1.45 22.35 -2.45 M 22.35 -16.35 Q 23.35 -17.4 23.35 -18.85 23.35 -20.3 22.35 -21.3 21.3 -22.35 19.85 -22.35 L -19.8 -22.35 Q -21.25 -22.35 -22.25 -21.3 -23.3 -20.3 -23.3 -18.85 -23.3 -17.4 -22.25 -16.35 -21.25 -15.35 -19.8 -15.35 L 19.85 -15.35 Q 21.3 -15.35 22.35 -16.35 M 15.25 -5.9 Q 16.7 -5.9 17.75 -6.9 18.75 -7.95 18.75 -9.4 18.75 -10.85 17.75 -11.85 16.7 -12.9 15.25 -12.9 L -13.65 -12.9 Q -15.1 -12.9 -16.1 -11.85 -17.15 -10.85 -17.15 -9.4 -17.15 -7.95 -16.1 -6.9 -15.1 -5.9 -13.65 -5.9 L 15.25 -5.9 Z"
         id="path258" />
    </g>
    <g
       id="Symbol_41_0_Layer0_0_FILL">
      <path
         fill="#444444"
         stroke="none"
         d=" M -20.35 16.4 Q -21.4 17.4 -21.4 18.85 -21.4 20.3 -20.35 21.35 -19.35 22.35 -17.9 22.35 L 21.45 22.35 21.45 15.35 -17.9 15.35 Q -19.35 15.35 -20.35 16.4 M -1.45 5.9 Q -2.9 5.9 -3.9 6.95 -4.95 7.95 -4.95 9.4 -4.95 10.85 -3.9 11.9 -2.9 12.9 -1.45 12.9 L 21.45 12.9 21.45 5.9 -1.45 5.9 M -17.9 -3.5 Q -19.35 -3.5 -20.35 -2.45 -21.4 -1.45 -21.4 0 -21.4 1.45 -20.35 2.5 -19.35 3.5 -17.9 3.5 L 21.45 3.5 21.45 -3.5 -17.9 -3.5 M 21.45 -15.35 L 21.45 -22.35 -17.9 -22.35 Q -19.35 -22.35 -20.35 -21.3 -21.4 -20.3 -21.4 -18.85 -21.4 -17.4 -20.35 -16.35 -19.35 -15.35 -17.9 -15.35 L 21.45 -15.35 M 21.45 -5.9 L 21.45 -12.9 -1.45 -12.9 Q -2.9 -12.9 -3.9 -11.85 -4.95 -10.85 -4.95 -9.4 -4.95 -7.95 -3.9 -6.9 -2.9 -5.9 -1.45 -5.9 L 21.45 -5.9 Z"
         id="path261" />
    </g>
    <g
       id="Symbol_42_0_Layer0_0_FILL">
      <path
         fill="#444444"
         stroke="none"
         d=" M -22.25 16.4 Q -23.3 17.4 -23.3 18.85 -23.3 20.3 -22.25 21.35 -21.25 22.35 -19.8 22.35 L 19.85 22.35 Q 21.3 22.35 22.35 21.35 23.35 20.3 23.35 18.85 23.35 17.4 22.35 16.4 21.3 15.35 19.85 15.35 L -19.8 15.35 Q -21.25 15.35 -22.25 16.4 M -22.25 6.95 Q -23.3 7.95 -23.3 9.4 -23.3 10.85 -22.25 11.9 -21.25 12.9 -19.8 12.9 L 19.85 12.9 Q 21.3 12.9 22.35 11.9 23.35 10.85 23.35 9.4 23.35 7.95 22.35 6.95 21.3 5.9 19.85 5.9 L -19.8 5.9 Q -21.25 5.9 -22.25 6.95 M 22.35 -2.45 Q 21.3 -3.5 19.85 -3.5 L -19.8 -3.5 Q -21.25 -3.5 -22.25 -2.45 -23.3 -1.45 -23.3 0 -23.3 1.45 -22.25 2.5 -21.25 3.5 -19.8 3.5 L 19.85 3.5 Q 21.3 3.5 22.35 2.5 23.35 1.45 23.35 0 23.35 -1.45 22.35 -2.45 M 22.35 -6.9 Q 23.35 -7.95 23.35 -9.4 23.35 -10.85 22.35 -11.85 21.3 -12.9 19.85 -12.9 L -19.8 -12.9 Q -21.25 -12.9 -22.25 -11.85 -23.3 -10.85 -23.3 -9.4 -23.3 -7.95 -22.25 -6.9 -21.25 -5.9 -19.8 -5.9 L 19.85 -5.9 Q 21.3 -5.9 22.35 -6.9 M 22.35 -16.35 Q 23.35 -17.4 23.35 -18.85 23.35 -20.3 22.35 -21.3 21.3 -22.35 19.85 -22.35 L -19.8 -22.35 Q -21.25 -22.35 -22.25 -21.3 -23.3 -20.3 -23.3 -18.85 -23.3 -17.4 -22.25 -16.35 -21.25 -15.35 -19.8 -15.35 L 19.85 -15.35 Q 21.3 -15.35 22.35 -16.35 Z"
         id="path264" />
    </g>
    <g
       id="Symbol_37_copy_2_0_Layer0_0_FILL">
      <path
         fill="#000000"
         stroke="none"
         d=" M -3.55 -19.05 Q -3.701171875 -19.0447265625 -3.85 -18.95 -3.96171875 -18.8662109375 -4.05 -18.75 L -17.85 18.35 Q -17.877734375 18.5369140625 -17.85 18.7 -17.78046875 18.8544921875 -17.65 18.95 -17.516015625 19.0498046875 -17.35 19.05 L -9.2 19.05 Q -9.035546875 19.04765625 -8.9 18.95 -8.7720703125 18.854296875 -8.75 18.7 L -6.35 11.4 6.4 11.4 8.8 18.7 Q 8.8728515625 18.8541015625 9 18.95 9.13515625 19.047265625 9.3 19.05 L 17.4 19.05 Q 17.566015625 19.0498046875 17.7 18.95 17.83046875 18.8548828125 17.85 18.7 17.9279296875 18.5357421875 17.85 18.35 L 4 -18.75 Q 3.9619140625 -18.866015625 3.8 -18.95 3.7009765625 -19.0447265625 3.55 -19.05 L -3.55 -19.05 M 3.95 4.2 L -3.9 4.2 0 -7.65 3.95 4.2 Z"
         id="path267" />
    </g>
    <g
       id="Symbol_37_copy_3_0_Layer0_0_FILL">
      <path
         fill="#000000"
         stroke="none"
         d=" M 9.65 -18.55 L 2.55 -18.55 -23.45 18.55 -15.3 18.55 -10.3 10.9 3.15 10.9 3.2 18.55 11.3 18.55 9.65 -18.55 M 3.1 4.7 L -6.15 4.7 3.05 -9.2 3.1 4.7 Z"
         id="path270" />
    </g>
    <g
       id="Layer1_0_FILL">
      <path
         fill="#4F3A16"
         stroke="none"
         d=" M 2133.55 31.35 Q 2133.55 20 2122.2 20 L 2095.9 20 Q 2084.55 20 2084.55 31.35 L 2084.55 53.65 Q 2084.55 65 2095.9 65 L 2122.2 65 Q 2133.55 65 2133.55 53.65 L 2133.55 31.35 Z"
         id="path273" />
    </g>
    <g
       id="Layer1_1_FILL">
      <path
         fill="#F8E8CE"
         stroke="none"
         d=" M 1923 39.95 L 1889.05 39.95 1889.05 50.55 1923 50.55 1923 39.95 Z"
         id="path276" />
    </g>
    <g
       id="Layer1_2_FILL">
      <path
         fill="#F8E8CE"
         stroke="none"
         d=" M 1923 39.95 L 1889.05 39.95 1889.05 50.55 1923 50.55 1923 39.95 Z"
         id="path279" />
    </g>
    <g
       id="Symbol_49_0_Layer0_0_FILL">
      <path
         fill="#000000"
         stroke="none"
         d=" M -7.65 23.15 Q -6.75 23.1 -6.45 22.3 -6.1 21.5 -6.75 20.85 L -10.8 16.8 -4 10 -10.35 3.7 -17.15 10.5 -21.2 6.4 Q -21.85 5.75 -22.65 6.1 -23.45 6.45 -23.5 7.3 L -23.7 22 Q -23.7 22.55 -23.3 22.95 -22.9 23.35 -22.35 23.35 L -7.65 23.15 M -23.5 -7.4 Q -23.45 -6.55 -22.65 -6.2 -21.85 -5.85 -21.2 -6.5 L -17.15 -10.55 -10.35 -3.75 -4 -10.1 -10.8 -16.9 -6.75 -20.95 Q -6.1 -21.6 -6.45 -22.4 -6.75 -23.2 -7.65 -23.25 L -22.35 -23.45 Q -22.9 -23.45 -23.3 -23.05 -23.7 -22.65 -23.7 -22.1 L -23.5 -7.4 M 22.4 23.45 Q 22.95 23.45 23.35 23.05 23.75 22.65 23.75 22.1 L 23.55 7.4 Q 23.55 6.55 22.7 6.2 21.9 5.85 21.25 6.5 L 17.2 10.6 10.4 3.8 4.1 10.1 10.85 16.9 6.8 20.95 Q 6.2 21.6 6.5 22.4 6.85 23.2 7.7 23.25 L 22.4 23.45 M 10.4 -3.7 L 17.2 -10.5 21.3 -6.4 Q 21.9 -5.75 22.75 -6.1 23.55 -6.45 23.55 -7.3 L 23.75 -22 Q 23.8 -22.55 23.4 -22.95 23 -23.35 22.4 -23.35 L 7.75 -23.15 Q 6.85 -23.1 6.5 -22.3 6.2 -21.5 6.8 -20.85 L 10.9 -16.8 4.1 -10 10.4 -3.7 Z"
         id="path282" />
    </g>
    <path
       id="Symbol_9_0_Layer0_0_1_STROKES"
       stroke="#C9530C"
       stroke-width="1"
       stroke-linejoin="round"
       stroke-linecap="round"
       fill="none"
       d=" M -815.3 -573.8 L 815.3 -573.8 815.3 573.8 -815.3 573.8 -815.3 -573.8 Z" />
    <path
       id="Symbol_57_0_Layer0_0_1_STROKES"
       stroke="#000000"
       stroke-width="4"
       stroke-linejoin="round"
       stroke-linecap="round"
       fill="none"
       d=" M -17.05 18.5 L 17.1 18.5" />
    <path
       id="Layer1_1_1_STROKES"
       stroke="#FFFFFF"
       stroke-width="1"
       stroke-linejoin="round"
       stroke-linecap="round"
       fill="none"
       d=" M 1889.05 39.95 L 1923 39.95 1923 50.55 1889.05 50.55 1889.05 39.95 Z" />
    <path
       id="Layer1_2_1_STROKES"
       stroke="#FFFFFF"
       stroke-width="1"
       stroke-linejoin="round"
       stroke-linecap="round"
       fill="none"
       d=" M 1889.05 39.95 L 1923 39.95 1923 50.55 1889.05 50.55 1889.05 39.95 Z" />
  </defs>
  <g
     transform="matrix( 1, 0, 0, 1, 1022.3,710.75) "
     id="g295">
    <g
       id="g293"
       transform="matrix( 1, 0, 0, 1, 0,0) ">
      <use
         xlink:href="#Symbol_34_0_Layer0_0_FILL"
         id="use291" />
    </g>
  </g>
</svg>
