<?xml version="1.0" encoding="UTF-8"?>
<svg width="2045px" height="1421px" preserveAspectRatio="none" version="1.1" viewBox="0 0 2045 1421" xmlns="http://www.w3.org/2000/svg" xmlns:xlink="http://www.w3.org/1999/xlink">
 <defs>
  <linearGradient id="Gradient_1" x1="-542.45" x2="1259" y1="-34.75" y2="-34.75" gradientUnits="userSpaceOnUse">
   <stop stop-color="#F9C880" offset="0"/>
   <stop stop-color="#F29100" offset=".99608"/>
  </linearGradient>
  <radialGradient id="Gradient_2" cx="0" cy="0" r="454.51" gradientTransform="matrix(1 0 0 1 -561 -236)" gradientUnits="userSpaceOnUse">
   <stop stop-color="#80CFF1" offset="0"/>
   <stop stop-color="#009EE2" offset=".99608"/>
  </radialGradient>
  <linearGradient id="Gradient_3" x1="-647.5" x2="-647.5" y1="-249.11" y2="-703.79" gradientUnits="userSpaceOnUse">
   <stop stop-color="#F9C880" offset="0"/>
   <stop stop-color="#F29100" offset=".99608"/>
  </linearGradient>
  <linearGradient id="Gradient_4" x1="-211.8" x2="-211.8" y1="-181" y2="712.6" gradientUnits="userSpaceOnUse">
   <stop stop-color="#F9C880" offset="0"/>
   <stop stop-color="#F29100" offset=".99608"/>
  </linearGradient>
  <linearGradient id="Gradient_5" x1="77.162" x2="-42.862" y1="177.4" y2="-708.1" gradientUnits="userSpaceOnUse">
   <stop stop-color="#F9C880" offset="0"/>
   <stop stop-color="#F29100" offset=".99608"/>
  </linearGradient>
  <radialGradient id="Gradient_6" cx="0" cy="0" r="454.51" gradientTransform="matrix(1 0 0 1 721.55 -191.05)" gradientUnits="userSpaceOnUse">
   <stop stop-color="#80CFF1" offset="0"/>
   <stop stop-color="#009EE2" offset=".99608"/>
  </radialGradient>
  <g id="Symbol_34_0_Layer0_0_FILL">
   <path d="m-284.45-319.7q-14.661 1.5496-29 4.25 4.3834-0.50957 8.75-1.1 10.212-1.3877 20.25-3.15m-336-391.35q2.4078 0.06582 4.7 0.1 18.5 0.28359 30.35 0.15 0.40469 0.021875 0.75 0 6.6561-0.040234 11.15-0.25 7.6947-0.30625 9.05-1h-28.75-0.5-64.2v-0.6h-364.4v73.6q68.452 31.588 151.3 27.1 82.835-4.4467 232.25-83.7 22.021-5.849 22.95-15.15l-4.65-0.25m552.1 180.35-191.45 1.95q-64.7 2.4-124.3 27.6-18.9 8-36.55 18 85.423 68.388 149.35 161 66.607-13.319 127.05-43 72.85-36 129.5-91.95 9.9719-9.874 19.2-20.2-32.172-23.046-72.8-53.4m-504.25-178.15q-0.14668-5.8594e-4 -0.3 0 0.050391 0.24609 0.05 0.4h0.05q0.10176-0.20195 0.2-0.4m610.4 189.8q20.923-29.603 36.7-62.2 30.721-63.387 38.65-131.4h-114.7l0.05 0.6-59.05 1.65q-1.0934 70.26 98.35 191.35m985.1 35.25h-0.15q-64.7 2.4-124.3 27.6-63.4 26.85-112.4 75.7-48.8 48.95-75.65 112.35-27.85 65.7-27.85 137.55 0 75.6 30.6 143.95 29.45 66.15 82.8 115.5-77.65 47.25-144.5 79.75-105.55 51.25-209.5 45-96.15-5.9-184-60.1v-155l-0.45 22.6v340.1q-87.95-41.4-185.65-41.4-77.95 0-150.45 26.6-70 25.85-127.85 73.7-57.25 47.45-95.6 111.05-39.1 64.85-53.9 139h-325.25q13.55-119.7 63.4-228.9 48.75-106.35 127.5-193.4 48.5 46.2 110.15 71.4 63.85 26.05 133.55 26.05 71.05 0 136-27.15 62.75-26.2 111.6-74.05 48.75-47.85 52.15-148.2 3.35-99.5 204.8-275v-207.6q6.1285-4.1783 12.1-8.25-38.815-18.17-81.9-27.85-73.1-16.45-149.1-6.15-77.45 10.5-144.6 47-64.9 35.3-111.7 89.9-46.75 54.6-36.95 154.55 9.7 99.1-186.3 302.75-1.8 1.9-3.55 3.7l-22.9-202.1-30.45-224.35q-27.975 28.184-49.55 62.85-23.5-31.05-51.25-56.9-1.8 17.8-1.8 36 0 75.6 30.6 143.95 29.45 66.15 82.8 115.5-77.65 47.25-144.5 79.75-105.55 51.25-209.5 45-94.9-5.8-181.7-58.7v562.7h2047v-1062.3h-1.85v-134.15m0-199.85h1.85v-29h-557.65q-6.91 88.296-36.25 173.8-19.048 55.183-46.6 106.85 32.585-21.693 57.7-38 116.75-75.7 209.5-120.7 51.95-25.2 124.75-33.6 74.25-8.65 152.25 2.5 49.35 7.1 94.45 21.35v-83.2z" fill="url(#Gradient_1)"/>
   <path d="m-569.4-31.6q-30.6-68.35-30.6-143.95 0-18.2 1.8-36-44.25-41.2-99.35-69.25-92.75-47.2-197.65-47.2-66.55 0-129.4 19.45v457.1q1.15 0.7 2.3 1.4 86.8 52.9 181.7 58.7 103.95 6.25 209.5-45 66.85-32.5 144.5-79.75-53.35-49.35-82.8-115.5m-28.5-681.15q2.2 0.39141 4.2 0.7h0.5q-2.2152-0.33477-4.7-0.7m602.35 235.45q198.84 142.54 76.2 7.65-23.342-25.67-42.85-49.4-99.443-121.09-98.35-191.35l-496.7-1.65-15.25 2.95q0.055078-0.015039 0.05-0.05l15.05-2.9h-7.05q-1.3553 0.69375-9.05 1-4.4939 0.20977-11.15 0.25-0.34531 0.021875-0.75 0-11.85 0.13359-30.35-0.15-2.2922-0.03418-4.7-0.1l4.65 0.25q-0.92891 9.301-22.95 15.15 20.824 21.16 20.6 69.35-0.2168 48.193 71.75 74.1 71.955 25.953 125.75 69.05 17.65-10 36.55-18 59.6-25.2 124.3-27.6l191.45-1.95q40.628 30.354 72.8 53.4m-576.9-231.6v0.05q-0.027344 0.20117-0.05 0.4h-0.35q3.9062e-4 -0.15391-0.05-0.4 0.15332-5.8594e-4 0.3 0v-0.05h0.15z" fill="url(#Gradient_2)"/>
   <path d="m-618.15-626.3q0.22363-48.19-20.6-69.35-149.42 79.253-232.25 83.7-82.848 4.4885-151.3-27.1-1.2 0.2-2.4 0.4v330.1q0.05 0 0.1 0 62.85-19.45 129.4-19.45 104.9 0 197.65 47.2 55.1 28.05 99.35 69.25 27.75 25.85 51.25 56.9 21.575-34.666 49.55-62.85l-15.25-112.7q97.29 26.9 199.2 14.75 14.339-2.7004 29-4.25 6.6342-1.1422 13.15-2.45-63.927-92.612-149.35-161-53.795-43.097-125.75-69.05-71.967-25.907-71.75-74.1m63.2-86.2q-1.2773 0.24883-2.45 0.45l-15.05 2.9q0.0050781 0.034961-0.05 0.05l15.25-2.95 2.3-0.45m-17.5 3.65v-0.05h-0.15v0.05q-0.098242 0.19805-0.2 0.4h-0.05 0.35q0.022656-0.19883 0.05-0.4z" fill="url(#Gradient_3)"/>
   <path d="m261.55-142.25q-1.8 1.55-3.6 3.15-201.45 175.5-204.8 275-3.4 100.35-52.15 148.2-48.85 47.85-111.6 74.05-64.95 27.15-136 27.15-69.7 0-133.55-26.05-61.65-25.2-110.15-71.4-78.75 87.05-127.5 193.4-49.85 109.2-63.4 228.9h325.25q14.8-74.15 53.9-139 38.35-63.6 95.6-111.05 57.85-47.85 127.85-73.7 72.5-26.6 150.45-26.6 97.7 0 185.65 41.4v-340.1l0.45-22.6 3.6-180.75z" fill="url(#Gradient_4)"/>
   <path d="m467.1-712.65q0.076562-0.9748 0.15-1.95h-353.85q-0.11055 0.97559-0.25 1.95-7.9295 68.013-38.65 131.4-15.777 32.597-36.7 62.2 19.508 23.73 42.85 49.4 122.64 134.89-76.2-7.65-9.2281 10.326-19.2 20.2-56.65 55.95-129.5 91.95-60.443 29.681-127.05 43-6.5158 1.3078-13.15 2.45-10.038 1.7623-20.25 3.15-4.3666 0.59043-8.75 1.1-101.91 12.15-199.2-14.75l15.25 112.7 30.45 224.35 22.9 202.1q1.75-1.8 3.55-3.7 196-203.65 186.3-302.75-9.8-99.95 36.95-154.55 46.8-54.6 111.7-89.9 67.15-36.5 144.6-47 76-10.3 149.1 6.15 43.085 9.6797 81.9 27.85 24.773 11.573 47.8 26.6 37.795-49.926 66.4-103.65 27.552-51.667 46.6-106.85 29.34-85.504 36.25-173.8z" fill="url(#Gradient_5)"/>
   <path d="m1022.8-483.8h0.15v-116.65q-45.1-14.25-94.45-21.35-78-11.15-152.25-2.5-72.8 8.4-124.75 33.6-92.75 45-209.5 120.7-25.115 16.307-57.7 38-28.605 53.724-66.4 103.65-23.027-15.027-47.8-26.6-5.9715 4.0717-12.1 8.25v207.6q1.8-1.6 3.6-3.15l-3.6 180.75v155q87.85 54.2 184 60.1 103.95 6.25 209.5-45 66.85-32.5 144.5-79.75-53.35-49.35-82.8-115.5-30.6-68.35-30.6-143.95 0-71.85 27.85-137.55 26.85-63.4 75.65-112.35 49-48.85 112.4-75.7 59.6-25.2 124.3-27.6z" fill="url(#Gradient_6)"/>
  </g>
 </defs>
 <g transform="translate(1022.3 710.75)">
  <g>
   <use xlink:href="#Symbol_34_0_Layer0_0_FILL"/>
  </g>
 </g>
</svg>
